<svg width="383" height="109" viewBox="0 0 383 109" fill="none" xmlns="http://www.w3.org/2000/svg">
<path fill-rule="evenodd" clip-rule="evenodd" d="M60.2513 0.236211C57.0653 0.498211 55.7133 0.740211 50.9173 1.90321C49.3003 2.29621 46.8833 3.05721 45.9173 3.47921C45.7343 3.55921 45.0963 3.82121 44.5013 4.06121C43.9053 4.30221 42.7803 4.80221 42.0013 5.17321C41.2213 5.54421 40.3213 5.95921 40.0013 6.09621C39.6803 6.23321 39.0423 6.58921 38.5843 6.88721C38.1263 7.18521 36.9263 7.93921 35.9173 8.56121C30.7643 11.7442 24.7313 17.3232 21.5043 21.8892C17.9093 26.9782 15.6913 31.1852 13.9073 36.3062C13.0423 38.7892 12.9423 38.9732 12.4553 38.9732C11.8853 38.9732 7.14933 34.0722 5.20633 31.4732C4.82933 30.9682 4.21733 30.2182 3.84633 29.8062C3.47433 29.3932 2.55133 28.1762 1.79433 27.1002C-0.113669 24.3882 0.00133087 23.9472 0.00133087 33.9832V42.2632L1.20933 43.4302C4.13633 46.2572 8.86233 50.1282 12.0843 52.3362C15.2153 54.4812 16.9703 55.6312 17.7513 56.0472C18.2093 56.2912 18.6973 56.5572 18.8343 56.6382C21.3183 58.1032 26.8263 60.9842 28.5013 61.6962C28.8213 61.8322 29.8343 62.2582 30.7513 62.6422C31.6673 63.0262 32.6423 63.4372 32.9173 63.5552C35.6483 64.7262 35.3313 65.6222 35.3513 56.6812C35.3613 52.4872 35.3803 46.5932 35.3933 43.5832L35.4173 38.1112L35.8113 37.7922C36.3583 37.3482 46.5063 37.2952 47.1303 37.7322L47.5013 37.9922V53.1472V68.3022L48.1263 68.5672C49.0093 68.9432 50.5353 69.2092 51.0583 69.0772L51.5013 68.9662V46.0852C51.5013 26.5932 51.5363 23.1552 51.7373 22.8802C52.0573 22.4422 62.6723 22.2792 63.2523 22.7032C63.5813 22.9432 63.5843 23.1862 63.6193 46.7902C63.6433 63.4472 63.7073 70.7362 63.8333 70.9702C64.0763 71.4262 67.5613 71.4902 67.7333 71.0422C67.7883 70.8972 67.8343 62.2872 67.8343 51.9092C67.8343 37.4552 67.8813 32.9932 68.0343 32.8392C68.3203 32.5532 79.3483 32.5532 79.6343 32.8392C79.7873 32.9932 79.8343 37.4342 79.8343 51.8142C79.8343 73.7252 79.5483 71.2592 82.0503 70.9512C82.9283 70.8432 83.7273 70.7052 83.8263 70.6442C83.9503 70.5672 84.0173 66.3552 84.0443 56.7622C84.0763 45.7252 84.1273 42.9462 84.3013 42.7732C84.6173 42.4572 95.5513 42.4572 95.8673 42.7732C96.0413 42.9462 96.0913 45.4642 96.1183 55.3422C96.1573 69.4582 96.0113 68.2832 97.6773 67.9012C99.0263 67.5922 100.452 67.1892 100.667 67.0562C100.758 67.0002 101.188 66.8542 101.625 66.7322C104.086 66.0402 109.17 63.8722 111.92 62.3402C113.258 61.5952 115.629 60.2582 115.834 60.1332C115.971 60.0492 116.684 59.6422 117.417 59.2272C118.151 58.8132 118.938 58.3282 119.167 58.1492L119.584 57.8242L119.557 53.8562C119.542 51.6752 119.453 49.4022 119.36 48.8062C118.756 44.9322 118.358 42.8292 117.926 41.2232C116.861 37.2662 116.433 36.0002 115.075 32.8062C110.745 22.6162 102.987 13.7372 93.0843 7.64021C89.1023 5.18821 83.1483 2.76821 78.1673 1.57621C71.8553 0.0672112 66.8503 -0.307789 60.2513 0.236211ZM200.334 26.4312C198.952 26.5512 196.58 27.0182 195.756 27.3332C194.261 27.9052 194.401 28.2662 196.96 30.4402C198.367 31.6352 198.625 31.7262 199.926 31.4852C204.045 30.7242 206.238 32.5492 206.818 37.2232C207.097 39.4672 207.051 56.0322 206.759 58.9472C206.279 63.7262 204.99 65.0522 200.812 65.0612L198.539 65.0662L197.58 65.8942C197.053 66.3502 196.23 67.0342 195.752 67.4142C194.296 68.5732 194.366 68.8782 196.242 69.5592C201.966 71.6352 209.453 69.4182 211.325 65.0922C211.532 64.6142 211.807 63.9982 211.935 63.7232C212.433 62.6552 212.82 60.6162 212.99 58.1682C213.348 53.0102 213.067 36.6832 212.596 35.2712C212.465 34.8782 212.304 34.2612 212.238 33.9002C211.754 31.2412 209.331 28.4752 206.488 27.3372C205.019 26.7492 201.928 26.2942 200.334 26.4312ZM166.117 26.9262C165.441 27.0282 165.688 25.9802 163.161 39.4502C162.433 43.3342 161.764 46.7842 161.676 47.1172C161.588 47.4502 161.441 48.1732 161.349 48.7232C161.256 49.2732 161.032 50.5482 160.851 51.5562C160.669 52.5642 160.401 54.0602 160.254 54.8802C160.011 56.2402 159.482 57.8062 159.265 57.8062C159.101 57.8062 158.533 55.5642 158.168 53.4732C157.705 50.8172 157.402 49.1632 156.979 46.9732C156.133 42.5982 156.266 43.3022 155.151 37.3062C154.322 32.8442 154.264 32.7242 153.534 33.9932C153.251 34.4862 152.641 35.3352 152.178 35.8802C151.18 37.0562 151.052 37.5692 151.402 38.9902C151.699 40.1952 152.129 42.4112 152.661 45.4732C152.86 46.6192 153.171 48.3552 153.352 49.3322C153.533 50.3092 153.829 51.9592 154.011 52.9992C154.193 54.0392 154.494 55.7522 154.681 56.8062C154.868 57.8602 155.085 59.0982 155.165 59.5562C155.244 60.0142 155.471 61.2892 155.669 62.3892C155.867 63.4892 156.094 64.8022 156.173 65.3062C156.91 70.0112 156.885 69.9742 159.408 69.9702C161.907 69.9672 161.619 70.4782 162.744 64.0562C162.904 63.1392 163.172 61.6392 163.338 60.7232C163.504 59.8062 163.764 58.3442 163.915 57.4732C164.065 56.6022 164.296 55.3642 164.426 54.7232C164.557 54.0812 164.741 53.0682 164.835 52.4732C164.928 51.8772 165.118 50.7892 165.256 50.0562C165.393 49.3232 165.652 47.8602 165.83 46.8062C166.449 43.1362 166.528 42.7142 166.864 41.3062C167.762 37.5382 167.818 38.3262 167.826 54.9052C167.834 68.7512 167.848 69.4342 168.139 69.6972C168.585 70.1012 173.745 70.1112 173.9 69.7092C174.11 69.1612 174.013 27.2182 173.801 27.0062C173.607 26.8132 167.307 26.7472 166.117 26.9262ZM244.7 26.9252C244.042 27.0512 244.016 27.4932 243.966 39.4712C243.916 51.4822 243.918 51.4522 243.333 51.4702C243.231 51.4732 242.582 50.0772 242.257 49.1562C242.127 48.7892 241.709 47.7542 241.328 46.8562C240.946 45.9582 240.484 44.8482 240.302 44.3892C240.12 43.9312 239.865 43.3442 239.736 43.0842C239.606 42.8252 239.501 42.5332 239.501 42.4362C239.501 42.3392 239.343 41.9132 239.149 41.4912C238.956 41.0682 238.696 40.4982 238.572 40.2232C238.447 39.9482 238.297 39.5142 238.237 39.2602C238.025 38.3532 236.867 38.4762 236.84 39.4092C236.836 39.5122 236.455 40.0872 235.991 40.6872C234.974 42.0042 234.966 42.0682 235.618 43.7342C237.052 47.3962 237.334 48.1542 237.339 48.3472C237.342 48.4622 237.455 48.7022 237.589 48.8802C237.724 49.0572 237.837 49.3202 237.84 49.4632C237.843 49.6062 237.99 50.0232 238.167 50.3892C238.344 50.7562 238.492 51.1442 238.495 51.2512C238.498 51.3582 238.606 51.6582 238.735 51.9172C238.864 52.1772 239.119 52.8022 239.301 53.3062C239.484 53.8102 239.897 54.8982 240.22 55.7232C241.638 59.3502 242.001 60.3132 242.001 60.4582C242.001 60.5432 242.11 60.8252 242.243 61.0842C242.376 61.3442 242.65 62.0062 242.851 62.5562C243.052 63.1062 243.318 63.7922 243.442 64.0812C243.566 64.3702 243.667 64.6682 243.667 64.7442C243.667 64.8662 243.972 65.6582 245.198 68.7232C245.381 69.1812 245.651 69.6502 245.798 69.7642C246.197 70.0762 249.562 70.0512 249.825 69.7342C250.03 69.4872 250.104 28.1932 249.901 27.3822C249.769 26.8572 246.541 26.5732 244.7 26.9252ZM266.728 26.9212C266.491 26.9682 266.339 27.1572 266.272 27.4902C266.142 28.1402 266.125 68.6022 266.255 68.8122C266.515 69.2342 266.804 69.0652 270.048 66.5922C272.524 64.7052 272.334 65.4862 272.334 57.1892C272.334 48.8122 271.798 49.8062 276.317 49.8062C280.309 49.8062 280.058 49.9742 279.974 47.3662C279.903 45.1822 280.143 45.3122 276.167 45.3062C272.57 45.3002 272.54 45.2932 272.326 44.3722C272.081 43.3142 272.131 32.3052 272.383 31.8062L272.594 31.3892L277.626 31.3452C283.526 31.2942 282.977 31.5532 282.871 28.8622C282.803 27.1322 282.773 26.9952 282.441 26.9062C282.04 26.7992 267.283 26.8132 266.728 26.9212ZM294.542 26.9242C294.086 27.0122 294.043 27.6222 294.413 28.7842C295.197 31.2482 295.862 33.3562 296.157 34.3062C296.341 34.9022 296.721 36.1022 297.001 36.9732C297.531 38.6232 297.724 39.2432 298.74 42.5562C299.078 43.6562 299.566 45.2312 299.826 46.0562C300.086 46.8812 300.351 47.8032 300.414 48.1052C300.766 49.7722 301.356 49.5142 302.722 47.0942C304.65 43.6772 304.724 43.2972 303.921 40.8892C303.798 40.5232 303.535 39.6232 303.335 38.8892C303.135 38.1562 302.872 37.2562 302.749 36.8892C302.502 36.1512 301.803 33.6882 301.329 31.8892C301.16 31.2482 300.873 30.2732 300.691 29.7232C300.51 29.1732 300.278 28.4072 300.177 28.0222C299.865 26.8402 299.774 26.8032 297.197 26.8292C295.943 26.8412 294.749 26.8842 294.542 26.9242ZM312.77 26.9512C312.257 27.0632 312.184 27.2342 311.182 30.6392C310.98 31.3272 310.704 32.2642 310.569 32.7232C310.434 33.1812 309.982 34.7562 309.565 36.2232C309.148 37.6892 308.544 39.7892 308.223 40.8892C307.902 41.9892 307.568 43.1522 307.481 43.4732C306.682 46.4032 306.372 46.9732 305.574 46.9732C305.158 46.9732 304.651 47.5372 303.973 48.7532C303.759 49.1372 303.187 50.0302 302.701 50.7372C301.706 52.1872 301.711 52.1192 302.476 54.3062L302.913 55.5562L302.964 62.4672C303.026 70.8552 302.656 69.9732 306.106 69.9732C309.531 69.9732 309.197 70.7852 309.134 62.6142L309.084 56.0562L309.965 53.3062C310.45 51.7932 311.067 49.8812 311.338 49.0562C311.608 48.2312 312.361 45.8312 313.012 43.7232C314.597 38.5882 315.048 37.1692 316.028 34.2232C317.716 29.1472 318.198 27.0842 317.737 26.9072C317.398 26.7772 313.402 26.8122 312.77 26.9512ZM358.584 26.9562C358.208 27.0392 358.096 27.1482 358.134 27.3952C358.209 27.8842 358.972 30.5492 359.445 31.9732C359.674 32.6602 360.372 34.8732 360.998 36.8892C361.624 38.9062 362.565 41.9062 363.089 43.5562C363.614 45.2062 364.153 46.9662 364.287 47.4682C364.996 50.1212 365.291 49.9282 367.759 45.2002C368.769 43.2642 368.769 43.5432 367.758 40.2232C367.089 38.0242 366.174 34.8872 365.667 33.0562C365.464 32.3232 365.048 30.8982 364.741 29.8892C364.434 28.8812 364.133 27.8442 364.071 27.5862C364.003 27.3022 363.797 27.0542 363.552 26.9612C363.097 26.7882 359.36 26.7842 358.584 26.9562ZM376.732 26.9212C376.221 27.0212 376.04 27.5112 374.588 32.7272C371.032 45.5032 370.51 46.9712 369.524 46.9742C369.08 46.9752 368.965 47.1092 368.085 48.6462C367.899 48.9702 367.394 49.7312 366.962 50.3352C365.717 52.0802 365.734 51.9582 366.408 54.1822L367.001 56.1362V62.7922C367.001 70.8232 366.637 69.9732 370.07 69.9732C373.526 69.9732 373.167 70.8152 373.169 62.7102L373.171 56.0562L373.735 54.2232C374.645 51.2622 375.326 49.1042 375.574 48.3892C375.702 48.0232 376.069 46.8602 376.39 45.8062C377.28 42.8852 378.657 38.4702 378.911 37.7232C379.035 37.3562 379.413 36.1562 379.75 35.0562C380.087 33.9562 380.55 32.5012 380.779 31.8222C381.713 29.0482 382.162 27.2502 381.975 27.0252C381.8 26.8142 377.689 26.7332 376.732 26.9212ZM145.538 27.3992L145.167 27.6582V33.4822C145.167 40.3942 145.013 40.0852 147.501 38.1522C149.669 36.4682 151.769 33.8782 152.749 31.6802C153.354 30.3242 153.307 27.9572 152.665 27.4372C152.148 27.0182 146.127 26.9862 145.538 27.3992ZM229.093 27.5102C228.698 28.0742 228.7 44.4322 229.095 44.5832C229.839 44.8692 235.334 39.7022 235.334 38.7172C235.334 38.6432 235.434 38.4642 235.556 38.3192C236.166 37.5952 236.523 35.9492 236.153 35.5642C236.069 35.4772 236.001 35.3042 236.001 35.1802C236.001 35.0562 235.86 34.6402 235.689 34.2552C235.517 33.8712 235.172 33.0312 234.922 32.3892C234.464 31.2172 233.68 29.3412 233.238 28.3642C233.107 28.0752 233.001 27.7552 233.001 27.6522C233.001 27.0252 229.522 26.8992 229.093 27.5102ZM336.001 27.4372C336.001 27.6002 336.319 27.9942 336.708 28.3122C337.097 28.6292 337.878 29.3162 338.443 29.8372C339.098 30.4422 339.672 30.8232 340.027 30.8892C340.823 31.0382 347.446 30.9172 347.612 30.7502C347.925 30.4362 347.771 27.6282 347.427 27.3762C346.875 26.9722 336.001 27.0302 336.001 27.4372ZM331.439 28.0602C331.144 28.8292 331.317 69.5072 331.617 69.7342C332.037 70.0532 336.638 70.0692 337.07 69.7542C337.352 69.5472 337.368 68.9972 337.347 60.0422C337.328 52.0002 337.361 50.4992 337.566 50.2192C337.79 49.9112 338.043 49.8862 341.328 49.8382L344.849 49.7872L345.025 49.3382C345.211 48.8612 345.14 45.8322 344.934 45.5002C344.85 45.3632 343.843 45.3062 341.513 45.3062C338.426 45.3062 338.184 45.2842 337.773 44.9612L337.334 44.6152L337.333 38.4192C337.332 31.2212 337.507 31.9392 335.323 30.1752C332.8 28.1372 331.65 27.5112 331.439 28.0602ZM192.184 30.6202C191.488 31.4262 190.657 33.4002 190.143 35.4732L189.751 37.0562V48.3892C189.751 61.0692 189.731 60.8302 191.039 63.9732C192.312 67.0292 192.9 67.1442 195.389 64.8192C196.328 63.9412 196.367 63.8102 195.979 62.7882C194.657 59.3102 194.545 37.2352 195.832 33.8512C196.286 32.6572 195.593 31.6762 193.3 30.2642C192.712 29.9022 192.839 29.8622 192.184 30.6202ZM149.084 39.4772C148.626 39.8442 147.68 40.4822 146.983 40.8932C146.287 41.3052 145.599 41.7732 145.456 41.9322C145.162 42.2602 144.901 68.3472 145.184 69.0982C145.389 69.6402 150.041 69.6882 150.328 69.1502C150.69 68.4742 150.452 38.9812 150.084 38.8632C149.992 38.8342 149.542 39.1102 149.084 39.4772ZM232.501 44.8252C231.813 45.3702 230.876 46.0392 230.417 46.3112C229.959 46.5832 229.413 46.9522 229.203 47.1292L228.822 47.4522L228.817 58.2362C228.811 67.9392 228.838 69.0482 229.079 69.2882C229.338 69.5462 233.915 69.6122 234.167 69.3612C234.29 69.2392 234.368 45.3472 234.248 44.5142C234.119 43.6092 234.008 43.6292 232.501 44.8252ZM277.976 65.2942C273.784 65.4002 274.251 65.2732 272.667 66.7382C272.078 67.2832 270.837 68.2352 269.205 69.3932C269.18 69.4102 269.207 69.5482 269.265 69.6992C269.441 70.1592 282.581 70.1122 282.828 69.6502C283.028 69.2762 283.059 65.8222 282.865 65.5172C282.673 65.2142 282.136 65.1902 277.976 65.2942Z" fill="#8A3DBE"/>
<path d="M119.5 58C85.5 92 35 81.1667 14 71.5C22.5 87.5 29.6729 96.251 40 101.5C87.7854 125.788 119.5 80.5 119.5 58Z" fill="#C99FE2"/>
</svg>
